<?xml version="1.0" ?><svg viewBox="0 0 64 64" xmlns="http://www.w3.org/2000/svg"><defs><style>.cls-1,.cls-5{fill:#fcc667;}.cls-2{fill:#fbae36;}.cls-3{fill:#cac7c1;}.cls-4{fill:#e6e5e1;}.cls-5{fill-rule:evenodd;}.cls-6{fill:#fa8e1b;}</style></defs><g id="Lunar"><path class="cls-1" d="M21.85,43.59a2.44,2.44,0,0,1,.3,1.63l-.85,4.45a.46.46,0,0,0,.75.43l3.42-3a2.64,2.64,0,0,1,2.23-.44,2.25,2.25,0,0,1,1.38,1.56l2.63,11.51a.3.3,0,0,0,.58,0l2.63-11.51a2.2,2.2,0,0,1,3.61-1.12l3.42,3a.46.46,0,0,0,.75-.43l-.85-4.45a2.59,2.59,0,0,1,.74-2.15,2.27,2.27,0,0,1,2-.42L55.9,46.14a.3.3,0,0,0,.29-.51l-8.65-8a2.2,2.2,0,0,1,.84-3.69l4.27-1.48a.45.45,0,0,0,0-.86l-4.27-1.48a2.66,2.66,0,0,1-1.5-1.72,2.27,2.27,0,0,1,.66-2l8.65-8a.3.3,0,0,0-.29-.51L44.62,21.34a2.19,2.19,0,0,1-2.77-2.56l.85-4.45A.46.46,0,0,0,42,13.9l-3.42,3a2.61,2.61,0,0,1-2.23.43,2.21,2.21,0,0,1-1.38-1.55L32.29,4.23a.3.3,0,0,0-.58,0L29.08,15.74a2.19,2.19,0,0,1-3.61,1.12l-3.42-3a.46.46,0,0,0-.75.43l.85,4.45a2.47,2.47,0,0,1-.33,1.61Z"/><path class="cls-2" d="M27,22.12a11.07,11.07,0,1,1,0,19.76Z"/><path class="cls-3" d="M21.45,20.81A11,11,0,0,1,32.22,32,11,11,0,0,1,21.45,43.18,11,11,0,0,1,10.68,32,11,11,0,0,1,21.45,20.81Z"/><path class="cls-4" d="M19,35.93a7,7,0,0,0-5.81,3.23,10.62,10.62,0,0,0,8.27,4,10.33,10.33,0,0,0,4.56-1,7,7,0,0,0-6.94-6.2Z"/><path class="cls-4" d="M19,35.93a7,7,0,0,0-5.81,3.23,10.62,10.62,0,0,0,8.27,4,10.33,10.33,0,0,0,4.56-1,7,7,0,0,0-6.94-6.2Z"/><path class="cls-4" d="M19.06,21.09a10.9,10.9,0,0,0-7.53,6.55,5.13,5.13,0,0,0,8.11-4.19,5.23,5.23,0,0,0-.57-2.36Z"/><path class="cls-4" d="M24.05,27.05a2.18,2.18,0,1,1-2.18,2.18A2.19,2.19,0,0,1,24.05,27.05Z"/><path class="cls-5" d="M6.51,31H4a1,1,0,0,0,0,2H6.51a1,1,0,0,0,0-2Z"/><path class="cls-5" d="M57.49,33H60a1,1,0,0,0,0-2H57.49a1,1,0,0,0,0,2Z"/><path class="cls-5" d="M18.39,53.57l-1.26,2.18a1,1,0,0,0,1.74,1l1.25-2.18a1,1,0,0,0-1.73-1Z"/><path class="cls-5" d="M45.61,10.43l1.26-2.18a1,1,0,0,0-1.74-1L43.88,9.43a1,1,0,0,0,.36,1.36A1,1,0,0,0,45.61,10.43Z"/><path class="cls-5" d="M43.88,54.57l1.25,2.18a1,1,0,0,0,1.74-1l-1.26-2.18a1,1,0,0,0-1.73,1Z"/><path class="cls-5" d="M20.12,9.43,18.87,7.25a1,1,0,0,0-1.74,1l1.26,2.18a1,1,0,0,0,1.37.36A1,1,0,0,0,20.12,9.43Z"/><g id="path1858-2"><path class="cls-6" d="M32,44.07a12.11,12.11,0,0,1-5.44-1.3,1,1,0,1,1,.9-1.78A10.21,10.21,0,0,0,32,42.07a10.07,10.07,0,0,0,0-20.14A10.21,10.21,0,0,0,27.46,23a1,1,0,0,1-.9-1.78A12.07,12.07,0,1,1,32,44.07Z"/></g><g id="path2019"><path class="cls-4" d="M21.45,44.19A12,12,0,0,1,9.68,32,12,12,0,0,1,21.45,19.81,12,12,0,0,1,33.22,32,12,12,0,0,1,21.45,44.19Zm0-22.38A10,10,0,0,0,11.68,32a10,10,0,0,0,9.77,10.19A10,10,0,0,0,31.22,32,10,10,0,0,0,21.45,21.81Z"/></g></g></svg>